<?xml version="1.0" encoding="utf-8" standalone="no"?>
<!DOCTYPE svg PUBLIC "-//W3C//DTD SVG 1.1//EN"
  "http://www.w3.org/Graphics/SVG/1.1/DTD/svg11.dtd">
<!-- Created with matplotlib (https://matplotlib.org/) -->
<svg height="360pt" version="1.1" viewBox="0 0 576 360" width="576pt" xmlns="http://www.w3.org/2000/svg" xmlns:xlink="http://www.w3.org/1999/xlink">
 <metadata>
  <rdf:RDF xmlns:cc="http://creativecommons.org/ns#" xmlns:dc="http://purl.org/dc/elements/1.1/" xmlns:rdf="http://www.w3.org/1999/02/22-rdf-syntax-ns#">
   <cc:Work>
    <dc:type rdf:resource="http://purl.org/dc/dcmitype/StillImage"/>
    <dc:date>2025-06-27T08:30:18.501647</dc:date>
    <dc:format>image/svg+xml</dc:format>
    <dc:creator>
     <cc:Agent>
      <dc:title>Matplotlib v3.3.4, https://matplotlib.org/</dc:title>
     </cc:Agent>
    </dc:creator>
   </cc:Work>
  </rdf:RDF>
 </metadata>
 <defs>
  <style type="text/css">*{stroke-linecap:butt;stroke-linejoin:round;}</style>
 </defs>
 <g id="figure_1">
  <g id="patch_1">
   <path d="M 0 360 
L 576 360 
L 576 0 
L 0 0 
z
" style="fill:#ffffff;"/>
  </g>
  <g id="axes_1">
   <g id="patch_2">
    <path d="M 57.91 323.42 
L 518.18 323.42 
L 518.18 26.88 
L 57.91 26.88 
z
" style="fill:#ffffff;"/>
   </g>
   <g id="GridlinesCollection_1">
    <path clip-path="url(#p4a7c406694)" style="fill:none;stroke:#b0b0b0;stroke-width:0.8;"/>
    <path clip-path="url(#p4a7c406694)" d="M 70.292032 323.42 
L 70.292032 26.88 
" style="fill:none;stroke:#b0b0b0;stroke-width:0.8;"/>
    <path clip-path="url(#p4a7c406694)" d="M 155.685353 323.42 
L 155.685353 26.88 
" style="fill:none;stroke:#b0b0b0;stroke-width:0.8;"/>
    <path clip-path="url(#p4a7c406694)" d="M 241.078673 323.42 
L 241.078673 26.88 
" style="fill:none;stroke:#b0b0b0;stroke-width:0.8;"/>
    <path clip-path="url(#p4a7c406694)" d="M 326.471994 323.42 
L 326.471994 26.88 
" style="fill:none;stroke:#b0b0b0;stroke-width:0.8;"/>
    <path clip-path="url(#p4a7c406694)" d="M 411.865315 323.42 
L 411.865315 26.88 
" style="fill:none;stroke:#b0b0b0;stroke-width:0.8;"/>
    <path clip-path="url(#p4a7c406694)" d="M 497.258636 323.42 
L 497.258636 26.88 
" style="fill:none;stroke:#b0b0b0;stroke-width:0.8;"/>
    <path clip-path="url(#p4a7c406694)" style="fill:none;stroke:#b0b0b0;stroke-width:0.8;"/>
    <path clip-path="url(#p4a7c406694)" d="M 57.91 350.414352 
L 518.18 350.414352 
" style="fill:none;stroke:#b0b0b0;stroke-width:0.8;"/>
    <path clip-path="url(#p4a7c406694)" d="M 57.91 296.946836 
L 518.18 296.946836 
" style="fill:none;stroke:#b0b0b0;stroke-width:0.8;"/>
    <path clip-path="url(#p4a7c406694)" d="M 57.91 243.47932 
L 518.18 243.47932 
" style="fill:none;stroke:#b0b0b0;stroke-width:0.8;"/>
    <path clip-path="url(#p4a7c406694)" d="M 57.91 190.011805 
L 518.18 190.011805 
" style="fill:none;stroke:#b0b0b0;stroke-width:0.8;"/>
    <path clip-path="url(#p4a7c406694)" d="M 57.91 136.544289 
L 518.18 136.544289 
" style="fill:none;stroke:#b0b0b0;stroke-width:0.8;"/>
    <path clip-path="url(#p4a7c406694)" d="M 57.91 83.076773 
L 518.18 83.076773 
" style="fill:none;stroke:#b0b0b0;stroke-width:0.8;"/>
    <path clip-path="url(#p4a7c406694)" d="M 57.91 29.609258 
L 518.18 29.609258 
" style="fill:none;stroke:#b0b0b0;stroke-width:0.8;"/>
    <path clip-path="url(#p4a7c406694)" style="fill:none;stroke:#b0b0b0;stroke-width:0.8;"/>
   </g>
   <g id="line2d_1">
    <path clip-path="url(#p4a7c406694)" d="M 497.258636 301.575053 
L 155.685353 270.354081 
L 112.988692 234.782052 
L 78.831364 89.488157 
" style="fill:none;stroke:#1f77b4;stroke-linecap:square;stroke-width:1.5;"/>
   </g>
   <g id="line2d_2">
    <path clip-path="url(#p4a7c406694)" d="M 497.258636 262.118377 
L 155.685353 173.344434 
L 112.988692 100.91254 
L 78.831364 40.359091 
" style="fill:none;stroke:#2ca02c;stroke-linecap:square;stroke-width:1.5;"/>
   </g>
   <g id="line2d_3">
    <path clip-path="url(#p4a7c406694)" d="M 497.258636 293.235351 
L 155.685353 284.724316 
L 112.988692 255.282538 
L 78.831364 201.083667 
" style="fill:none;stroke:#d62728;stroke-linecap:square;stroke-width:1.5;"/>
   </g>
   <g id="line2d_4">
    <path clip-path="url(#p4a7c406694)" d="M 497.258636 309.940909 
L 155.685353 297.486356 
L 112.988692 289.607587 
L 78.831364 162.973375 
" style="fill:none;stroke:#7f7f7f;stroke-linecap:square;stroke-width:1.5;"/>
   </g>
   <g id="line2d_5">
    <defs>
     <path d="M 0 3 
C 0.795609 3 1.55874 2.683901 2.12132 2.12132 
C 2.683901 1.55874 3 0.795609 3 0 
C 3 -0.795609 2.683901 -1.55874 2.12132 -2.12132 
C 1.55874 -2.683901 0.795609 -3 0 -3 
C -0.795609 -3 -1.55874 -2.683901 -2.12132 -2.12132 
C -2.683901 -1.55874 -3 -0.795609 -3 0 
C -3 0.795609 -2.683901 1.55874 -2.12132 2.12132 
C -1.55874 2.683901 -0.795609 3 0 3 
z
" id="mfb94c75a73" style="stroke:#2ca02c;"/>
    </defs>
    <g clip-path="url(#p4a7c406694)">
     <use style="fill:#2ca02c;stroke:#2ca02c;" x="497.258636" xlink:href="#mfb94c75a73" y="277.060209"/>
     <use style="fill:#2ca02c;stroke:#2ca02c;" x="155.685353" xlink:href="#mfb94c75a73" y="247.013039"/>
     <use style="fill:#2ca02c;stroke:#2ca02c;" x="112.988692" xlink:href="#mfb94c75a73" y="217.627286"/>
     <use style="fill:#2ca02c;stroke:#2ca02c;" x="78.831364" xlink:href="#mfb94c75a73" y="88.888936"/>
    </g>
   </g>
   <g id="line2d_6">
    <defs>
     <path d="M 0 3 
C 0.795609 3 1.55874 2.683901 2.12132 2.12132 
C 2.683901 1.55874 3 0.795609 3 0 
C 3 -0.795609 2.683901 -1.55874 2.12132 -2.12132 
C 1.55874 -2.683901 0.795609 -3 0 -3 
C -0.795609 -3 -1.55874 -2.683901 -2.12132 -2.12132 
C -2.683901 -1.55874 -3 -0.795609 -3 0 
C -3 0.795609 -2.683901 1.55874 -2.12132 2.12132 
C -1.55874 2.683901 -0.795609 3 0 3 
z
" id="mdc40814e7f" style="stroke:#7f7f7f;"/>
    </defs>
    <g clip-path="url(#p4a7c406694)">
     <use style="fill:#7f7f7f;stroke:#7f7f7f;" x="497.258636" xlink:href="#mdc40814e7f" y="299.015617"/>
     <use style="fill:#7f7f7f;stroke:#7f7f7f;" x="155.685353" xlink:href="#mdc40814e7f" y="251.511589"/>
     <use style="fill:#7f7f7f;stroke:#7f7f7f;" x="112.988692" xlink:href="#mdc40814e7f" y="213.146506"/>
     <use style="fill:#7f7f7f;stroke:#7f7f7f;" x="78.831364" xlink:href="#mdc40814e7f" y="158.415117"/>
    </g>
   </g>
   <g id="line2d_7">
    <defs>
     <path d="M 0 3 
C 0.795609 3 1.55874 2.683901 2.12132 2.12132 
C 2.683901 1.55874 3 0.795609 3 0 
C 3 -0.795609 2.683901 -1.55874 2.12132 -2.12132 
C 1.55874 -2.683901 0.795609 -3 0 -3 
C -0.795609 -3 -1.55874 -2.683901 -2.12132 -2.12132 
C -2.683901 -1.55874 -3 -0.795609 -3 0 
C -3 0.795609 -2.683901 1.55874 -2.12132 2.12132 
C -1.55874 2.683901 -0.795609 3 0 3 
z
" id="m0b562e5e9c" style="stroke:#1f77b4;"/>
    </defs>
    <g clip-path="url(#p4a7c406694)">
     <use style="fill:#1f77b4;stroke:#1f77b4;" x="497.258636" xlink:href="#m0b562e5e9c" y="306.040417"/>
     <use style="fill:#1f77b4;stroke:#1f77b4;" x="155.685353" xlink:href="#m0b562e5e9c" y="309.940909"/>
     <use style="fill:#1f77b4;stroke:#1f77b4;" x="112.988692" xlink:href="#m0b562e5e9c" y="288.087258"/>
     <use style="fill:#1f77b4;stroke:#1f77b4;" x="78.831364" xlink:href="#m0b562e5e9c" y="40.359091"/>
    </g>
   </g>
   <g id="line2d_8">
    <defs>
     <path d="M 0 3 
C 0.795609 3 1.55874 2.683901 2.12132 2.12132 
C 2.683901 1.55874 3 0.795609 3 0 
C 3 -0.795609 2.683901 -1.55874 2.12132 -2.12132 
C 1.55874 -2.683901 0.795609 -3 0 -3 
C -0.795609 -3 -1.55874 -2.683901 -2.12132 -2.12132 
C -2.683901 -1.55874 -3 -0.795609 -3 0 
C -3 0.795609 -2.683901 1.55874 -2.12132 2.12132 
C -1.55874 2.683901 -0.795609 3 0 3 
z
" id="md8d89d02c3" style="stroke:#d62728;"/>
    </defs>
    <g clip-path="url(#p4a7c406694)">
     <use style="fill:#d62728;stroke:#d62728;" x="497.258636" xlink:href="#md8d89d02c3" y="285.941273"/>
     <use style="fill:#d62728;stroke:#d62728;" x="155.685353" xlink:href="#md8d89d02c3" y="279.840322"/>
     <use style="fill:#d62728;stroke:#d62728;" x="112.988692" xlink:href="#md8d89d02c3" y="246.36992"/>
     <use style="fill:#d62728;stroke:#d62728;" x="78.831364" xlink:href="#md8d89d02c3" y="170.233264"/>
    </g>
   </g>
   <g id="mpl_toolkits.axisartist.axis_artist_1">
    <defs>
     <path d="M 0 0 
L 0 -3.5 
" id="m37a5ea65d4" style="stroke:#000000;stroke-width:0.8;"/>
    </defs>
    <g>
     <use style="fill:none;stroke:#000000;stroke-width:0.8;" x="70.292032" xlink:href="#m37a5ea65d4" y="323.42"/>
    </g>
    <g>
     <use style="fill:none;stroke:#000000;stroke-width:0.8;" x="155.685353" xlink:href="#m37a5ea65d4" y="323.42"/>
    </g>
    <g>
     <use style="fill:none;stroke:#000000;stroke-width:0.8;" x="241.078673" xlink:href="#m37a5ea65d4" y="323.42"/>
    </g>
    <g>
     <use style="fill:none;stroke:#000000;stroke-width:0.8;" x="326.471994" xlink:href="#m37a5ea65d4" y="323.42"/>
    </g>
    <g>
     <use style="fill:none;stroke:#000000;stroke-width:0.8;" x="411.865315" xlink:href="#m37a5ea65d4" y="323.42"/>
    </g>
    <g>
     <use style="fill:none;stroke:#000000;stroke-width:0.8;" x="497.258636" xlink:href="#m37a5ea65d4" y="323.42"/>
    </g>
    <g id="text_1">
     <text style="font-family:DejaVu Sans;font-size:10px;font-stretch:normal;font-style:normal;font-weight:normal;text-anchor:middle;" transform="rotate(-0, 70.292032, 334.341875)" x="70.292032" y="334.341875">0</text>
    </g>
    <g id="text_2">
     <text style="font-family:DejaVu Sans;font-size:10px;font-stretch:normal;font-style:normal;font-weight:normal;text-anchor:middle;" transform="rotate(-0, 155.685353, 334.341875)" x="155.685353" y="334.341875">1000</text>
    </g>
    <g id="text_3">
     <text style="font-family:DejaVu Sans;font-size:10px;font-stretch:normal;font-style:normal;font-weight:normal;text-anchor:middle;" transform="rotate(-0, 241.078673, 334.341875)" x="241.078673" y="334.341875">2000</text>
    </g>
    <g id="text_4">
     <text style="font-family:DejaVu Sans;font-size:10px;font-stretch:normal;font-style:normal;font-weight:normal;text-anchor:middle;" transform="rotate(-0, 326.471994, 334.341875)" x="326.471994" y="334.341875">3000</text>
    </g>
    <g id="text_5">
     <text style="font-family:DejaVu Sans;font-size:10px;font-stretch:normal;font-style:normal;font-weight:normal;text-anchor:middle;" transform="rotate(-0, 411.865315, 334.341875)" x="411.865315" y="334.341875">4000</text>
    </g>
    <g id="text_6">
     <text style="font-family:DejaVu Sans;font-size:10px;font-stretch:normal;font-style:normal;font-weight:normal;text-anchor:middle;" transform="rotate(-0, 497.258636, 334.341875)" x="497.258636" y="334.341875">5000</text>
    </g>
    <g id="patch_3">
     <path d="M 57.91 323.42 
L 518.18 323.42 
" style="fill:none;stroke:#000000;stroke-linecap:square;stroke-width:0.8;"/>
    </g>
    <g id="text_7">
     <text style="font-family:DejaVu Sans;font-size:10px;font-stretch:normal;font-style:normal;font-weight:normal;text-anchor:middle;" transform="rotate(-0, 288.045, 347.0825)" x="288.045" y="347.0825">bs</text>
    </g>
   </g>
   <g id="mpl_toolkits.axisartist.axis_artist_2">
    <defs>
     <path d="M 0 0 
L -0 3.5 
" id="m40a3c72bc5" style="stroke:#000000;stroke-width:0.8;"/>
    </defs>
    <g>
     <use style="fill:none;stroke:#000000;stroke-width:0.8;" x="70.292032" xlink:href="#m40a3c72bc5" y="26.88"/>
    </g>
    <g>
     <use style="fill:none;stroke:#000000;stroke-width:0.8;" x="155.685353" xlink:href="#m40a3c72bc5" y="26.88"/>
    </g>
    <g>
     <use style="fill:none;stroke:#000000;stroke-width:0.8;" x="241.078673" xlink:href="#m40a3c72bc5" y="26.88"/>
    </g>
    <g>
     <use style="fill:none;stroke:#000000;stroke-width:0.8;" x="326.471994" xlink:href="#m40a3c72bc5" y="26.88"/>
    </g>
    <g>
     <use style="fill:none;stroke:#000000;stroke-width:0.8;" x="411.865315" xlink:href="#m40a3c72bc5" y="26.88"/>
    </g>
    <g>
     <use style="fill:none;stroke:#000000;stroke-width:0.8;" x="497.258636" xlink:href="#m40a3c72bc5" y="26.88"/>
    </g>
    <g id="patch_4">
     <path d="M 57.91 26.88 
L 518.18 26.88 
" style="fill:none;stroke:#000000;stroke-linecap:square;stroke-width:0.8;"/>
    </g>
   </g>
   <g id="mpl_toolkits.axisartist.axis_artist_3">
    <defs>
     <path d="M 0 0 
L 3.5 0 
" id="m5eeff6b119" style="stroke:#000000;stroke-width:0.8;"/>
    </defs>
    <g>
     <use style="fill:none;stroke:#000000;stroke-width:0.8;" x="57.91" xlink:href="#m5eeff6b119" y="296.946836"/>
    </g>
    <g>
     <use style="fill:none;stroke:#000000;stroke-width:0.8;" x="57.91" xlink:href="#m5eeff6b119" y="243.47932"/>
    </g>
    <g>
     <use style="fill:none;stroke:#000000;stroke-width:0.8;" x="57.91" xlink:href="#m5eeff6b119" y="190.011805"/>
    </g>
    <g>
     <use style="fill:none;stroke:#000000;stroke-width:0.8;" x="57.91" xlink:href="#m5eeff6b119" y="136.544289"/>
    </g>
    <g>
     <use style="fill:none;stroke:#000000;stroke-width:0.8;" x="57.91" xlink:href="#m5eeff6b119" y="83.076773"/>
    </g>
    <g>
     <use style="fill:none;stroke:#000000;stroke-width:0.8;" x="57.91" xlink:href="#m5eeff6b119" y="29.609258"/>
    </g>
    <g id="text_8">
     <text style="font-family:DejaVu Sans;font-size:10px;font-stretch:normal;font-style:normal;font-weight:normal;text-anchor:end;" transform="rotate(-0, 54.41, 299.706211)" x="54.41" y="299.706211">0.006</text>
    </g>
    <g id="text_9">
     <text style="font-family:DejaVu Sans;font-size:10px;font-stretch:normal;font-style:normal;font-weight:normal;text-anchor:end;" transform="rotate(-0, 54.41, 246.238695)" x="54.41" y="246.238695">0.008</text>
    </g>
    <g id="text_10">
     <text style="font-family:DejaVu Sans;font-size:10px;font-stretch:normal;font-style:normal;font-weight:normal;text-anchor:end;" transform="rotate(-0, 54.41, 192.77118)" x="54.41" y="192.77118">0.010</text>
    </g>
    <g id="text_11">
     <text style="font-family:DejaVu Sans;font-size:10px;font-stretch:normal;font-style:normal;font-weight:normal;text-anchor:end;" transform="rotate(-0, 54.41, 139.303664)" x="54.41" y="139.303664">0.012</text>
    </g>
    <g id="text_12">
     <text style="font-family:DejaVu Sans;font-size:10px;font-stretch:normal;font-style:normal;font-weight:normal;text-anchor:end;" transform="rotate(-0, 54.41, 85.836148)" x="54.41" y="85.836148">0.014</text>
    </g>
    <g id="text_13">
     <text style="font-family:DejaVu Sans;font-size:10px;font-stretch:normal;font-style:normal;font-weight:normal;text-anchor:end;" transform="rotate(-0, 54.41, 32.368633)" x="54.41" y="32.368633">0.016</text>
    </g>
    <g id="patch_5">
     <path d="M 57.91 323.42 
L 57.91 26.88 
" style="fill:none;stroke:#000000;stroke-linecap:square;stroke-width:0.8;"/>
    </g>
    <g id="text_14">
     <text style="font-family:DejaVu Sans;font-size:10px;font-stretch:normal;font-style:normal;font-weight:normal;text-anchor:middle;" transform="rotate(-90, 18.702188, 175.15)" x="18.702188" y="175.15">Mean Error</text>
    </g>
   </g>
   <g id="mpl_toolkits.axisartist.axis_artist_4">
    <defs>
     <path d="M 0 0 
L -3.5 -0 
" id="m020a79ae1f" style="stroke:#000000;stroke-width:0.8;"/>
    </defs>
    <g>
     <use style="fill:none;stroke:#000000;stroke-width:0.8;" x="518.18" xlink:href="#m020a79ae1f" y="297.35748"/>
    </g>
    <g>
     <use style="fill:none;stroke:#000000;stroke-width:0.8;" x="518.18" xlink:href="#m020a79ae1f" y="261.864924"/>
    </g>
    <g>
     <use style="fill:none;stroke:#000000;stroke-width:0.8;" x="518.18" xlink:href="#m020a79ae1f" y="226.372368"/>
    </g>
    <g>
     <use style="fill:none;stroke:#000000;stroke-width:0.8;" x="518.18" xlink:href="#m020a79ae1f" y="190.879812"/>
    </g>
    <g>
     <use style="fill:none;stroke:#000000;stroke-width:0.8;" x="518.18" xlink:href="#m020a79ae1f" y="155.387256"/>
    </g>
    <g>
     <use style="fill:none;stroke:#000000;stroke-width:0.8;" x="518.18" xlink:href="#m020a79ae1f" y="119.8947"/>
    </g>
    <g>
     <use style="fill:none;stroke:#000000;stroke-width:0.8;" x="518.18" xlink:href="#m020a79ae1f" y="84.402144"/>
    </g>
    <g>
     <use style="fill:none;stroke:#000000;stroke-width:0.8;" x="518.18" xlink:href="#m020a79ae1f" y="48.909588"/>
    </g>
    <g id="text_15">
     <text style="font-family:DejaVu Sans;font-size:10px;font-stretch:normal;font-style:normal;font-weight:normal;text-anchor:start;" transform="rotate(-0, 521.68, 300.116855)" x="521.68" y="300.116855">0.030</text>
    </g>
    <g id="text_16">
     <text style="font-family:DejaVu Sans;font-size:10px;font-stretch:normal;font-style:normal;font-weight:normal;text-anchor:start;" transform="rotate(-0, 521.68, 264.624299)" x="521.68" y="264.624299">0.035</text>
    </g>
    <g id="text_17">
     <text style="font-family:DejaVu Sans;font-size:10px;font-stretch:normal;font-style:normal;font-weight:normal;text-anchor:start;" transform="rotate(-0, 521.68, 229.131743)" x="521.68" y="229.131743">0.040</text>
    </g>
    <g id="text_18">
     <text style="font-family:DejaVu Sans;font-size:10px;font-stretch:normal;font-style:normal;font-weight:normal;text-anchor:start;" transform="rotate(-0, 521.68, 193.639187)" x="521.68" y="193.639187">0.045</text>
    </g>
    <g id="text_19">
     <text style="font-family:DejaVu Sans;font-size:10px;font-stretch:normal;font-style:normal;font-weight:normal;text-anchor:start;" transform="rotate(-0, 521.68, 158.146631)" x="521.68" y="158.146631">0.050</text>
    </g>
    <g id="text_20">
     <text style="font-family:DejaVu Sans;font-size:10px;font-stretch:normal;font-style:normal;font-weight:normal;text-anchor:start;" transform="rotate(-0, 521.68, 122.654075)" x="521.68" y="122.654075">0.055</text>
    </g>
    <g id="text_21">
     <text style="font-family:DejaVu Sans;font-size:10px;font-stretch:normal;font-style:normal;font-weight:normal;text-anchor:start;" transform="rotate(-0, 521.68, 87.161519)" x="521.68" y="87.161519">0.060</text>
    </g>
    <g id="text_22">
     <text style="font-family:DejaVu Sans;font-size:10px;font-stretch:normal;font-style:normal;font-weight:normal;text-anchor:start;" transform="rotate(-0, 521.68, 51.668963)" x="521.68" y="51.668963">0.065</text>
    </g>
    <g id="patch_6">
     <path d="M 518.18 323.42 
L 518.18 26.88 
" style="fill:none;stroke:#000000;stroke-linecap:square;stroke-width:0.8;"/>
    </g>
    <g id="text_23">
     <text style="font-family:DejaVu Sans;font-size:10px;font-stretch:normal;font-style:normal;font-weight:normal;text-anchor:middle;" transform="rotate(-90, 562.906562, 175.15)" x="562.906562" y="175.15">Max Error</text>
    </g>
   </g>
   <g id="text_24">
    <text style="font-family:DejaVu Sans;font-size:12px;font-stretch:normal;font-style:normal;font-weight:normal;text-anchor:middle;" transform="rotate(-0, 288.045, 20.88)" x="288.045" y="20.88">Solutions of the Poisson problem for bs</text>
   </g>
   <g id="legend_1">
    <g id="patch_7">
     <path d="M 216.189844 60.500625 
L 359.900156 60.500625 
Q 361.700156 60.500625 361.700156 58.700625 
L 361.700156 33.18 
Q 361.700156 31.38 359.900156 31.38 
L 216.189844 31.38 
Q 214.389844 31.38 214.389844 33.18 
L 214.389844 58.700625 
Q 214.389844 60.500625 216.189844 60.500625 
z
" style="fill:#ffffff;opacity:0.8;stroke:#cccccc;stroke-linejoin:miter;"/>
    </g>
    <g id="line2d_9"/>
    <g id="line2d_10">
     <g>
      <use style="fill:#1f77b4;stroke:#1f77b4;" x="226.989844" xlink:href="#m0b562e5e9c" y="38.668594"/>
     </g>
    </g>
    <g id="text_25">
     <text style="font-family:DejaVu Sans;font-size:9px;font-stretch:normal;font-style:normal;font-weight:normal;text-anchor:start;" transform="rotate(-0, 243.189844, 41.818594)" x="243.189844" y="41.818594">8 layers</text>
    </g>
    <g id="line2d_11"/>
    <g id="line2d_12">
     <g>
      <use style="fill:#7f7f7f;stroke:#7f7f7f;" x="226.989844" xlink:href="#mdc40814e7f" y="51.878906"/>
     </g>
    </g>
    <g id="text_26">
     <text style="font-family:DejaVu Sans;font-size:9px;font-stretch:normal;font-style:normal;font-weight:normal;text-anchor:start;" transform="rotate(-0, 243.189844, 55.028906)" x="243.189844" y="55.028906">2 layers</text>
    </g>
    <g id="line2d_13"/>
    <g id="line2d_14">
     <g>
      <use style="fill:#d62728;stroke:#d62728;" x="306.045" xlink:href="#md8d89d02c3" y="38.668594"/>
     </g>
    </g>
    <g id="text_27">
     <text style="font-family:DejaVu Sans;font-size:9px;font-stretch:normal;font-style:normal;font-weight:normal;text-anchor:start;" transform="rotate(-0, 322.245, 41.818594)" x="322.245" y="41.818594">4 layers</text>
    </g>
    <g id="line2d_15"/>
    <g id="line2d_16">
     <g>
      <use style="fill:#2ca02c;stroke:#2ca02c;" x="306.045" xlink:href="#mfb94c75a73" y="51.878906"/>
     </g>
    </g>
    <g id="text_28">
     <text style="font-family:DejaVu Sans;font-size:9px;font-stretch:normal;font-style:normal;font-weight:normal;text-anchor:start;" transform="rotate(-0, 322.245, 55.028906)" x="322.245" y="55.028906">6 layers</text>
    </g>
   </g>
  </g>
 </g>
 <defs>
  <clipPath id="p4a7c406694">
   <rect height="296.54" width="460.27" x="57.91" y="26.88"/>
  </clipPath>
 </defs>
</svg>
